<svg width="79" height="472" viewBox="0 0 79 472" fill="none" xmlns="http://www.w3.org/2000/svg">
<g clip-path="url(#clip0_2012_6434)">
<path d="M155.27 267.142C75.202 265.705 9.12882 329.448 7.6918 409.516C6.25478 489.585 69.9981 555.658 150.066 557.095C230.135 558.532 296.208 494.789 297.645 414.72C299.082 334.652 235.339 268.579 155.27 267.142Z" fill="#539933"/>
<path d="M155.27 267.142C75.202 265.705 9.12882 329.448 7.6918 409.516C6.25478 489.585 69.9981 555.658 150.066 557.095C230.135 558.532 296.208 494.789 297.645 414.72C299.082 334.652 235.339 268.579 155.27 267.142Z" stroke="#151515" stroke-width="10"/>
<path d="M155.27 98.6606C75.202 97.2236 9.12882 160.967 7.6918 241.035C6.25478 321.104 69.9981 387.177 150.067 388.614C230.135 390.051 296.208 326.308 297.645 246.239C299.082 166.171 235.339 100.098 155.27 98.6606Z" fill="#91DA6C"/>
<path d="M155.27 98.6606C75.202 97.2236 9.12882 160.967 7.6918 241.035C6.25478 321.104 69.9981 387.177 150.067 388.614C230.135 390.051 296.208 326.308 297.645 246.239C299.082 166.171 235.339 100.098 155.27 98.6606Z" stroke="#151515" stroke-width="10"/>
<path d="M155.27 -65.7803C75.202 -67.2173 9.12882 -3.47402 7.6918 76.5944C6.25478 156.663 69.9981 222.736 150.067 224.173C230.135 225.61 296.208 161.867 297.645 81.7983C299.082 1.72989 235.339 -64.3433 155.27 -65.7803Z" fill="#C7EEB4"/>
<path d="M155.27 -65.7803C75.202 -67.2173 9.12882 -3.47402 7.6918 76.5944C6.25478 156.663 69.9981 222.736 150.067 224.173C230.135 225.61 296.208 161.867 297.645 81.7983C299.082 1.72989 235.339 -64.3433 155.27 -65.7803Z" stroke="#151515" stroke-width="10"/>
</g>
<defs>
<clipPath id="clip0_2012_6434">
<rect width="79" height="472" fill="white"/>
</clipPath>
</defs>
</svg>
