<svg width="62" height="59" viewBox="0 0 62 59" fill="none" xmlns="http://www.w3.org/2000/svg">
<path d="M31.2512 0.926758C27.1958 0.926758 21.5793 7.04614 19.5661 15.4932C18.0757 16.6317 16.7934 17.376 15.8632 17.7199C14.4818 18.2308 14.1511 18.0026 14.062 17.9405C13.9719 17.8788 13.5696 17.4699 13.4586 16.0492C13.3481 14.6285 13.6123 12.4312 14.4543 9.77235L14.4552 9.77187C14.4842 9.68317 14.5093 9.59303 14.5302 9.50195C14.5302 9.50195 19.2108 5.7279 18.1002 4.26968C16.9893 2.81145 15.3659 6.78478 14.0681 5.88067C12.7702 4.977 15.125 1.37132 13.5715 0.955271C12.0179 0.538775 12.2523 4.83934 10.6764 4.97268C9.10049 5.10646 9.68069 0.852777 7.98957 1.56003C6.29843 2.26731 8.46584 7.87578 8.46584 7.87578C7.44927 11.0864 6.99535 13.9624 7.19645 16.5367C7.3971 19.1111 8.33683 21.6182 10.4942 23.1081C12.6517 24.5977 15.476 24.5587 18.0428 23.609C18.299 23.5137 18.5561 23.4041 18.8137 23.2922C18.8274 26.4358 18.8986 29.3982 19.2738 32.0101C17.6003 31.5812 15.8802 31.2644 14.1416 31.2293C11.6033 31.178 8.38275 31.8445 6.6604 34.6703C5.81317 36.0602 5.5684 37.9828 5.98585 39.4591C6.40329 40.9348 7.20594 41.9657 8.02613 42.8285C9.66651 44.5538 11.6223 45.7786 13.4463 46.9972C15.2669 48.2136 16.9508 49.4089 17.7212 50.2092C17.5723 50.3002 17.5842 50.4155 16.4698 50.518C14.8978 50.6622 12.5933 50.4217 10.5383 50.0232C10.5383 50.0232 5.75949 44.8835 4.15286 46.2957C2.5466 47.7084 7.30649 49.2742 6.36109 50.8591C5.41567 52.4439 1.02401 50 0.666744 51.8424C0.309546 53.6854 5.29462 53.0573 5.57976 54.8808C5.86439 56.7043 0.866023 56.3764 1.82793 58.2873C2.79043 60.1975 9.1436 57.218 9.1436 57.218C11.5752 57.69 14.3626 58.0724 17.1443 57.8172C19.9255 57.562 23.3282 56.4699 24.8646 53.2087C25.5671 51.7178 25.6127 49.8644 25.1364 48.4532C24.6606 47.042 23.8528 46.0164 23.014 45.1431C21.3367 43.3964 19.3467 42.128 17.518 40.9064C16.2059 40.0298 15.362 39.3434 14.5204 38.6636C15.8273 38.758 17.5469 39.0768 19.3456 39.6451C19.3456 39.6451 25.419 41.7389 31.2513 41.7389C37.0836 41.7389 43.155 39.6451 43.155 39.6451C44.9542 39.0768 46.6734 38.7575 47.9802 38.6636C47.1392 39.3434 46.2972 40.0298 44.9851 40.9064C43.1563 42.128 41.1645 43.3964 39.4872 45.1431C38.6485 46.0164 37.8431 47.042 37.3668 48.4532C36.891 49.8644 36.9361 51.7178 37.6386 53.2087C39.175 56.4699 42.5777 57.562 45.3589 57.8172C48.1401 58.0724 50.9279 57.69 53.3596 57.218C53.3596 57.218 59.7109 60.198 60.673 58.2873C61.635 56.3766 56.6366 56.7048 56.9211 54.8808C57.2062 53.0573 62.1918 53.6854 61.8341 51.8424C61.4769 50 57.0876 52.4439 56.1422 50.8591C55.1968 49.2742 59.9548 47.7084 58.3485 46.2957C56.7422 44.883 51.9631 50.0232 51.9631 50.0232C49.9086 50.4222 47.6017 50.6622 46.0297 50.518C44.9154 50.4155 44.9273 50.3007 44.7783 50.2092C45.5492 49.4089 47.2327 48.2134 49.0538 46.9972C50.8781 45.7786 52.8335 44.5538 54.4739 42.8285C55.2941 41.9656 56.0986 40.9353 56.5165 39.4591C56.9339 37.9829 56.6868 36.0603 55.84 34.6703C54.1176 31.8445 50.8995 31.178 48.3607 31.2293C46.6212 31.2648 44.9012 31.5812 43.2267 32.0101C43.6024 29.3977 43.6735 26.4358 43.6868 23.2922C43.9453 23.4041 44.2029 23.5142 44.4595 23.609C47.0269 24.5587 49.8526 24.5981 52.0101 23.1081C54.1675 21.6181 55.1053 19.1111 55.306 16.5367C55.5068 13.9624 55.0527 11.0862 54.0361 7.87578C54.0361 7.87578 56.2036 2.26729 54.5124 1.56003C52.8212 0.852777 53.4014 5.10638 51.8256 4.97268C50.2497 4.8389 50.4841 0.538739 48.9305 0.955271C47.377 1.37177 49.7312 4.97693 48.4339 5.88067C47.1359 6.78434 45.5127 2.81157 44.4022 4.26968C43.2917 5.7279 47.9719 9.50195 47.9719 9.50195H47.9738C47.9947 9.59303 48.0198 9.68316 48.0488 9.77187C48.8908 12.4308 49.1555 14.6279 49.0444 16.0488C48.9339 17.4695 48.5312 17.8779 48.441 17.94C48.3509 18.0017 48.0212 18.2303 46.6399 17.7195C45.7092 17.3751 44.4269 16.6303 42.935 15.4908C40.9228 7.04518 35.3077 0.926769 31.2528 0.926769L31.2512 0.926758Z" fill="#F4A10C" fill-opacity="0.5"/>
</svg>
