<svg width="141" height="32" viewBox="0 0 141 32" fill="none" xmlns="http://www.w3.org/2000/svg">
<path d="M42 8.81023H51.5522V11.4968H44.8145V14.9083H51.4243V17.5949H44.8145V23.7356H42V8.81023Z" fill="black"/>
<path d="M54.3306 13.1599H58.8082V14.6951H59.192C59.391 14.1123 59.725 13.6645 60.1941 13.3518C60.6774 13.0249 61.2531 12.8614 61.9212 12.8614C62.9731 12.8614 63.8189 13.1955 64.4585 13.8635C65.0982 14.5174 65.418 15.5195 65.418 16.8699V17.339L62.6462 17.5949V17.2964C62.6462 16.7136 62.4969 16.2516 62.1984 15.9104C61.8999 15.5551 61.4521 15.3774 60.8551 15.3774C60.2581 15.3774 59.789 15.5835 59.4479 15.9957C59.1067 16.408 58.9361 16.9979 58.9361 17.7655V21.177H61.3668V23.7356H54.0747V21.177H56.2496V15.7186H54.3306V13.1599Z" fill="black"/>
<path d="M78.2603 18.5757C78.2603 19.457 78.1111 20.2388 77.8126 20.9211C77.5141 21.5892 77.1089 22.1578 76.5972 22.6269C76.0855 23.0817 75.4956 23.43 74.8275 23.6716C74.1736 23.9133 73.4842 24.0341 72.7593 24.0341C72.0343 24.0341 71.3378 23.9133 70.6697 23.6716C70.0158 23.43 69.433 23.0817 68.9213 22.6269C68.4096 22.1578 68.0045 21.5892 67.706 20.9211C67.4074 20.2388 67.2582 19.457 67.2582 18.5757V18.3198C67.2582 17.4527 67.4074 16.6851 67.706 16.0171C68.0045 15.3348 68.4096 14.7591 68.9213 14.29C69.433 13.8209 70.0158 13.4655 70.6697 13.2239C71.3378 12.9822 72.0343 12.8614 72.7593 12.8614C73.4842 12.8614 74.1736 12.9822 74.8275 13.2239C75.4956 13.4655 76.0855 13.8209 76.5972 14.29C77.1089 14.7591 77.5141 15.3348 77.8126 16.0171C78.1111 16.6851 78.2603 17.4527 78.2603 18.3198V18.5757ZM72.7593 21.4755C73.1431 21.4755 73.5055 21.4115 73.8467 21.2836C74.1878 21.1556 74.4863 20.9709 74.7422 20.7292C74.9981 20.4876 75.1971 20.1962 75.3392 19.855C75.4956 19.4996 75.5738 19.1016 75.5738 18.661V18.2345C75.5738 17.7939 75.4956 17.403 75.3392 17.0618C75.1971 16.7065 74.9981 16.408 74.7422 16.1663C74.4863 15.9247 74.1878 15.7399 73.8467 15.6119C73.5055 15.484 73.1431 15.42 72.7593 15.42C72.3755 15.42 72.013 15.484 71.6718 15.6119C71.3307 15.7399 71.0322 15.9247 70.7763 16.1663C70.5205 16.408 70.3143 16.7065 70.158 17.0618C70.0158 17.403 69.9448 17.7939 69.9448 18.2345V18.661C69.9448 19.1016 70.0158 19.4996 70.158 19.855C70.3143 20.1962 70.5205 20.4876 70.7763 20.7292C71.0322 20.9709 71.3307 21.1556 71.6718 21.2836C72.013 21.4115 72.3755 21.4755 72.7593 21.4755Z" fill="black"/>
<path d="M88.5014 22.2004H88.1176C88.0039 22.4421 87.8617 22.6766 87.6911 22.9041C87.5348 23.1173 87.3215 23.3092 87.0515 23.4797C86.7956 23.6503 86.4829 23.7854 86.1133 23.8849C85.7579 23.9844 85.3244 24.0341 84.8127 24.0341C84.1588 24.0341 83.5476 23.9204 82.979 23.693C82.4246 23.4513 81.9342 23.1031 81.5078 22.6482C81.0955 22.1791 80.7686 21.6105 80.527 20.9424C80.2995 20.2743 80.1858 19.5068 80.1858 18.6397V18.2559C80.1858 17.403 80.3066 16.6425 80.5483 15.9744C80.8041 15.3063 81.1453 14.7448 81.5717 14.29C82.0124 13.8209 82.517 13.4655 83.0856 13.2239C83.6684 12.9822 84.2796 12.8614 84.9193 12.8614C85.7722 12.8614 86.4473 13.0249 86.9449 13.3518C87.4424 13.6645 87.8333 14.1123 88.1176 14.6951H88.5014V13.1599H91.1879V26.3369C91.1879 26.8202 91.0316 27.2182 90.7188 27.5309C90.4203 27.8436 90.0294 28 89.5461 28H82.4246V25.4414H87.9257C88.3095 25.4414 88.5014 25.2281 88.5014 24.8017V22.2004ZM85.6869 21.4755C86.5255 21.4755 87.2007 21.2125 87.7125 20.6866C88.2384 20.1464 88.5014 19.4428 88.5014 18.5757V18.3198C88.5014 17.4527 88.2384 16.7562 87.7125 16.2303C87.2007 15.6901 86.5255 15.42 85.6869 15.42C84.8482 15.42 84.1659 15.683 83.64 16.209C83.1282 16.7207 82.8724 17.4243 82.8724 18.3198V18.5757C82.8724 19.4712 83.1282 20.1819 83.64 20.7079C84.1659 21.2196 84.8482 21.4755 85.6869 21.4755Z" fill="black"/>
<path d="M97.3778 16.145C97.3778 16.4861 97.5555 16.7349 97.9108 16.8913C98.2662 17.0334 98.913 17.1542 99.8511 17.2537C100.931 17.3674 101.813 17.6944 102.495 18.2345C103.177 18.7605 103.519 19.4996 103.519 20.452V20.58C103.519 21.6318 103.135 22.4705 102.367 23.0959C101.6 23.7214 100.519 24.0341 99.1262 24.0341C98.3018 24.0341 97.5981 23.9275 97.0153 23.7143C96.4325 23.5011 95.9492 23.2381 95.5654 22.9254C95.1816 22.5984 94.8831 22.2431 94.6699 21.8593C94.4709 21.4613 94.3359 21.0775 94.2648 20.7079L96.7381 19.8977C96.8519 20.3525 97.0864 20.7505 97.4418 21.0917C97.8113 21.4328 98.3728 21.6034 99.1262 21.6034C99.7943 21.6034 100.249 21.5039 100.491 21.3049C100.747 21.0917 100.875 20.8643 100.875 20.6226C100.875 20.4805 100.839 20.3525 100.768 20.2388C100.711 20.1109 100.597 19.9972 100.427 19.8977C100.256 19.7839 100.022 19.6915 99.7232 19.6205C99.4389 19.5494 99.0764 19.4925 98.6358 19.4499C97.4418 19.3504 96.4894 19.0448 95.7786 18.533C95.0821 18.0071 94.7339 17.2395 94.7339 16.2303V16.1023C94.7339 15.5764 94.8476 15.1144 95.075 14.7164C95.3025 14.3184 95.601 13.9844 95.9706 13.7143C96.3401 13.43 96.7666 13.2168 97.2499 13.0746C97.7332 12.9325 98.2307 12.8614 98.7424 12.8614C99.4105 12.8614 99.9862 12.9467 100.469 13.1173C100.967 13.2736 101.386 13.4869 101.727 13.7569C102.069 14.0128 102.346 14.3042 102.559 14.6311C102.772 14.9439 102.936 15.2495 103.049 15.548L100.619 16.5288C100.491 16.145 100.27 15.8465 99.9578 15.6333C99.645 15.4058 99.2399 15.2921 98.7424 15.2921C98.2875 15.2921 97.9464 15.3774 97.7189 15.548C97.4915 15.7043 97.3778 15.9033 97.3778 16.145Z" fill="black"/>
<path d="M107.278 8.81023H116.83V11.4968H110.092V14.9083H116.702V17.5949H110.092V23.7356H107.278V8.81023Z" fill="black"/>
<path d="M120.312 21.177H123.894V15.7186H120.568V13.1599H126.581V21.177H129.651V23.7356H120.312V21.177ZM127.242 10.0256C127.242 10.3099 127.185 10.58 127.071 10.8358C126.971 11.0775 126.829 11.2907 126.645 11.4755C126.46 11.6461 126.239 11.7882 125.984 11.9019C125.742 12.0014 125.486 12.0512 125.216 12.0512C124.932 12.0512 124.669 12.0014 124.427 11.9019C124.185 11.7882 123.972 11.6461 123.787 11.4755C123.603 11.2907 123.453 11.0775 123.34 10.8358C123.24 10.58 123.19 10.3099 123.19 10.0256C123.19 9.74129 123.24 9.47832 123.34 9.23667C123.453 8.98081 123.603 8.76759 123.787 8.59701C123.972 8.41222 124.185 8.27008 124.427 8.17058C124.669 8.05686 124.932 8 125.216 8C125.486 8 125.742 8.05686 125.984 8.17058C126.239 8.27008 126.46 8.41222 126.645 8.59701C126.829 8.76759 126.971 8.98081 127.071 9.23667C127.185 9.47832 127.242 9.74129 127.242 10.0256Z" fill="black"/>
<path fill-rule="evenodd" clip-rule="evenodd" d="M11.5 2V3.75H6.25V2H11.5ZM6.25 5.5H4.5V3.75H6.25V5.5ZM4.5 10.75H2.75V5.5H4.5V10.75ZM4.5 12.5V10.75H6.25V12.5H4.5ZM4.5 12.5H2.75V14.25H1V17.75H2.75V19.5H4.5V21.25H6.25V23H2.75V24.75H1V28.25H2.75V30H8V28.25H9.75V30H11.5V28.25H13.25V30H18.5V28.25H20.25V30H22V28.25H23.75V30H29V28.25H30.75V24.75H29V23H25.5V21.25H27.25V19.5H29V17.75H30.75V14.25H29V12.5H27.25V10.75H29V5.5H27.25V3.75H25.5V2H20.25V3.75H18.5V5.5H13.25V3.75H11.5V5.5H13.25V7.25H18.5V5.5H20.25V3.75H25.5V5.5H22V9H25.5V5.5H27.25V10.75H25.5V12.5H27.25V14.25H29V17.75H27.25V19.5H22V21.25H23.75V23H25.5V26.5H27.25V24.75H29V28.25H23.75V26.5H22V28.25H20.25V26.5H18.5V28.25H13.25V26.5H11.5V28.25H9.75V26.5H8V28.25H2.75V24.75H4.5V26.5H6.25V23H8V21.25H9.75V19.5H4.5V17.75H2.75V14.25H4.5V12.5ZM6.25 5.5V9H9.75V5.5H6.25ZM8 14.25V16H6.25V14.25H8ZM23.75 16V17.75H8V16H23.75ZM23.75 16H25.5V14.25H23.75V16Z" fill="black"/>
<path fill-rule="evenodd" clip-rule="evenodd" d="M11.5 3.75V5.5H13.25V10.75H11.5V12.5H6.25V10.75H4.5V5.5H6.25V9H9.75V5.5H6.25V3.75H11.5ZM25.5 3.75V5.5H22V9H25.5V5.5H27.25V10.75H25.5V12.5H20.25V10.75H18.5V5.5H20.25V3.75H25.5ZM16.75 23V24.75H18.5V28.25H13.25V24.75H15V23H16.75Z" fill="white"/>
<path fill-rule="evenodd" clip-rule="evenodd" d="M18.5 7.25V10.75H20.25V12.5H27.25V14.25H29V17.75H27.25V19.5H22V21.25H23.75V23H25.5V26.5H27.25V24.75H29V28.25H23.75V26.5H22V28.25H20.25V26.5H18.5V24.75H16.75V23H15V24.75H13.25V26.5H11.5V28.25H9.75V26.5H8V28.25H2.75V24.75H4.5V26.5H6.25V23H8V21.25H9.75V19.5H4.5V17.75H2.75V14.25H4.5V12.5H11.5V10.75H13.25V7.25H18.5ZM8 14.25H6.25V16H8V17.75H23.75V16H25.5V14.25H23.75V16H8V14.25Z" fill="#92CC41"/>
</svg>
