<svg width="472" height="80" viewBox="0 0 472 80" fill="none" xmlns="http://www.w3.org/2000/svg">
<g clip-path="url(#clip0_2016_6441)">
<path d="M267.141 150.73C265.704 230.798 329.447 296.871 409.516 298.308C489.584 299.745 555.657 236.002 557.094 155.934C558.531 75.8651 494.788 9.7919 414.719 8.35488C334.651 6.91786 268.578 70.6611 267.141 150.73Z" fill="#C7EEB4"/>
<path d="M267.141 150.73C265.704 230.798 329.447 296.871 409.516 298.308C489.584 299.745 555.657 236.002 557.094 155.934C558.531 75.8651 494.788 9.7919 414.719 8.35488C334.651 6.91786 268.578 70.6611 267.141 150.73Z" stroke="#151515" stroke-width="10"/>
<path d="M98.6605 150.73C97.2235 230.798 160.967 296.871 241.036 298.308C321.104 299.745 387.177 236.002 388.614 155.933C390.051 75.8651 326.308 9.7919 246.239 8.35488C166.171 6.91786 100.098 70.6612 98.6605 150.73Z" fill="#91DA6C"/>
<path d="M98.6605 150.73C97.2235 230.798 160.967 296.871 241.036 298.308C321.104 299.745 387.177 236.002 388.614 155.933C390.051 75.8651 326.308 9.7919 246.239 8.35488C166.171 6.91786 100.098 70.6612 98.6605 150.73Z" stroke="#151515" stroke-width="10"/>
<path d="M-65.7809 150.73C-67.218 230.798 -3.47461 296.871 76.5938 298.308C156.662 299.745 222.735 236.002 224.172 155.934C225.609 75.8651 161.866 9.7919 81.7977 8.35488C1.7293 6.91786 -64.3439 70.6611 -65.7809 150.73Z" fill="#539933"/>
<path d="M-65.7809 150.73C-67.218 230.798 -3.47461 296.871 76.5938 298.308C156.662 299.745 222.735 236.002 224.172 155.934C225.609 75.8651 161.866 9.7919 81.7977 8.35488C1.7293 6.91786 -64.3439 70.6611 -65.7809 150.73Z" stroke="#151515" stroke-width="10"/>
</g>
<defs>
<clipPath id="clip0_2016_6441">
<rect width="472" height="80" fill="white"/>
</clipPath>
</defs>
</svg>
