<svg width="80" height="472" viewBox="0 0 80 472" fill="none" xmlns="http://www.w3.org/2000/svg">
<g clip-path="url(#clip0_2012_6427)">
<path d="M-70.7296 267.142C-150.798 265.705 -216.871 329.448 -218.308 409.516C-219.745 489.585 -156.002 555.658 -75.9335 557.095C4.13491 558.532 70.2081 494.789 71.6451 414.72C73.0821 334.652 9.33881 268.579 -70.7296 267.142Z" fill="#539933"/>
<path d="M-70.7296 267.142C-150.798 265.705 -216.871 329.448 -218.308 409.516C-219.745 489.585 -156.002 555.658 -75.9335 557.095C4.13491 558.532 70.2081 494.789 71.6451 414.72C73.0821 334.652 9.33881 268.579 -70.7296 267.142Z" stroke="#151515" stroke-width="10"/>
<path d="M-70.7296 98.6606C-150.798 97.2236 -216.871 160.967 -218.308 241.035C-219.745 321.104 -156.002 387.177 -75.9335 388.614C4.13494 390.051 70.2081 326.308 71.6451 246.239C73.0822 166.171 9.33885 100.098 -70.7296 98.6606Z" fill="#91DA6C"/>
<path d="M-70.7296 98.6606C-150.798 97.2236 -216.871 160.967 -218.308 241.035C-219.745 321.104 -156.002 387.177 -75.9335 388.614C4.13494 390.051 70.2081 326.308 71.6451 246.239C73.0822 166.171 9.33885 100.098 -70.7296 98.6606Z" stroke="#151515" stroke-width="10"/>
<path d="M-70.7296 -65.7803C-150.798 -67.2173 -216.871 -3.47402 -218.308 76.5944C-219.745 156.663 -156.002 222.736 -75.9335 224.173C4.13491 225.61 70.2081 161.867 71.6451 81.7983C73.0821 1.72989 9.33881 -64.3433 -70.7296 -65.7803Z" fill="#C7EEB4"/>
<path d="M-70.7296 -65.7803C-150.798 -67.2173 -216.871 -3.47402 -218.308 76.5944C-219.745 156.663 -156.002 222.736 -75.9335 224.173C4.13491 225.61 70.2081 161.867 71.6451 81.7983C73.0821 1.72989 9.33881 -64.3433 -70.7296 -65.7803Z" stroke="#151515" stroke-width="10"/>
</g>
<defs>
<clipPath id="clip0_2012_6427">
<rect width="80" height="472" fill="white"/>
</clipPath>
</defs>
</svg>
