<svg width="473" height="80" viewBox="0 0 473 80" fill="none" xmlns="http://www.w3.org/2000/svg">
<g clip-path="url(#clip0_2016_6449)">
<path d="M267.641 -75.7693C266.204 4.29906 329.947 70.3723 410.015 71.8093C490.084 73.2463 556.157 9.50298 557.594 -70.5654C559.031 -150.634 495.288 -216.707 415.219 -218.144C335.151 -219.581 269.078 -155.838 267.641 -75.7693Z" fill="#539933"/>
<path d="M267.641 -75.7693C266.204 4.29906 329.947 70.3723 410.015 71.8093C490.084 73.2463 556.157 9.50298 557.594 -70.5654C559.031 -150.634 495.288 -216.707 415.219 -218.144C335.151 -219.581 269.078 -155.838 267.641 -75.7693Z" stroke="#151515" stroke-width="10"/>
<path d="M99.1605 -75.7694C97.7235 4.29905 161.467 70.3723 241.535 71.8093C321.604 73.2463 387.677 9.50295 389.114 -70.5655C390.551 -150.634 326.808 -216.707 246.739 -218.144C166.671 -219.581 100.598 -155.838 99.1605 -75.7694Z" fill="#91DA6C"/>
<path d="M99.1605 -75.7694C97.7235 4.29905 161.467 70.3723 241.535 71.8093C321.604 73.2463 387.677 9.50295 389.114 -70.5655C390.551 -150.634 326.808 -216.707 246.739 -218.144C166.671 -219.581 100.598 -155.838 99.1605 -75.7694Z" stroke="#151515" stroke-width="10"/>
<path d="M-65.2809 -75.7693C-66.7179 4.29905 -2.97459 70.3723 77.0938 71.8093C157.162 73.2463 223.235 9.50296 224.672 -70.5654C226.109 -150.634 162.366 -216.707 82.2977 -218.144C2.22932 -219.581 -63.8439 -155.838 -65.2809 -75.7693Z" fill="#C7EEB4"/>
<path d="M-65.2809 -75.7693C-66.7179 4.29905 -2.97459 70.3723 77.0938 71.8093C157.162 73.2463 223.235 9.50296 224.672 -70.5654C226.109 -150.634 162.366 -216.707 82.2977 -218.144C2.22932 -219.581 -63.8439 -155.838 -65.2809 -75.7693Z" stroke="#151515" stroke-width="10"/>
</g>
<defs>
<clipPath id="clip0_2016_6449">
<rect width="473" height="80" fill="white"/>
</clipPath>
</defs>
</svg>
