<svg width="52" height="59" viewBox="0 0 52 59" fill="none" xmlns="http://www.w3.org/2000/svg">
<path d="M26.0139 0.578613C21.9301 0.578613 16.2979 6.67873 14.1928 15.1328C12.6411 16.3267 11.311 17.0999 10.348 17.4558C8.94171 17.9759 8.60555 17.7436 8.51431 17.6804C8.42255 17.6176 8.01301 17.2032 7.89999 15.7567C7.78698 14.3103 8.05454 12.0733 8.91177 9.36633C9.48068 7.65573 8.52348 5.81333 6.797 5.29457C5.10717 4.78795 3.3261 5.74515 2.81709 7.43455C1.78214 10.7032 1.32186 13.6317 1.5266 16.2521C1.73088 18.8731 2.68326 21.4278 4.88018 22.9443C7.07666 24.4613 9.95165 24.4188 12.5653 23.4524C12.8261 23.3553 13.0898 23.2438 13.352 23.1298C13.3626 26.4119 13.4298 29.5046 13.8205 32.2242C12.1167 31.7876 10.366 31.465 8.59544 31.4293C6.01123 31.3771 2.73443 32.0556 0.9813 34.9326C0.118754 36.3476 -0.132854 38.3049 0.292138 39.8075C0.717131 41.3104 1.53664 42.3594 2.37166 43.2378C4.04172 44.9943 6.0305 46.2413 7.88785 47.4819C9.74138 48.7202 11.4558 49.9372 12.2406 50.7519C12.089 50.8447 12.1035 50.962 10.9686 51.0663C9.36812 51.2131 7.01957 50.9683 4.92793 50.5626C-0.0309178 49.4997 -1.48992 57.0157 3.50613 57.8855C5.98166 58.366 8.81956 58.7553 11.651 58.4954C14.4825 58.2356 17.9467 57.1238 19.5109 53.8036C20.2262 52.2858 20.2726 50.3989 19.7877 48.9621C19.3033 47.5254 18.4827 46.4813 17.6289 45.5921C15.9213 43.8144 13.8933 42.5225 12.0316 41.2789C10.6957 40.3864 9.83612 39.6876 8.97983 38.9955C10.3104 39.0916 12.063 39.4161 13.8943 39.9947C13.8943 39.9947 20.075 42.1264 26.0133 42.1264C31.9511 42.1264 38.1323 39.9947 38.1323 39.9947C39.964 39.4161 41.7162 39.0911 43.0467 38.9955C42.1905 39.6875 41.3313 40.3864 39.9949 41.2789C38.1331 42.5225 36.1053 43.8139 34.3977 45.5921C33.5438 46.4812 32.7238 47.5254 32.2389 48.9621C31.7545 50.3989 31.8004 52.2858 32.5156 53.8036C34.0798 57.1238 37.5441 58.2352 40.3755 58.4954C43.207 58.7553 46.0453 58.366 48.5204 57.8855C53.517 57.0157 52.058 49.4996 47.0986 50.5626C45.007 50.9688 42.6584 51.2131 41.058 51.0663C39.9235 50.962 39.9376 50.8451 39.7859 50.7519C40.5707 49.9372 42.2847 48.7201 44.1387 47.4819C45.9961 46.2413 47.9848 44.9943 49.6549 43.2378C50.4899 42.3593 51.3095 41.3099 51.7344 39.8075C52.1594 38.3046 51.9078 36.3472 51.0453 34.9326C49.2916 32.0556 46.0153 31.3766 43.4311 31.4293C41.6602 31.4655 39.909 31.7876 38.2042 32.2242C38.5954 29.5042 38.6635 26.4124 38.6746 23.1298C38.9374 23.2438 39.2006 23.3558 39.4614 23.4524C42.0751 24.4193 44.9501 24.4613 47.1465 22.9443C49.3429 21.4278 50.2958 18.8726 50.5 16.2521C50.7043 13.6312 50.2446 10.7031 49.2095 7.43455C48.7005 5.74422 46.918 4.78655 45.2276 5.29457C43.5021 5.81373 42.5459 7.65623 43.1147 9.36633C43.972 12.0733 44.239 14.3102 44.1265 15.7567C44.014 17.2033 43.604 17.6171 43.5122 17.6804C43.4204 17.7431 43.0848 17.9759 41.6785 17.4558C40.7155 17.0994 39.3854 16.3267 37.8337 15.1328C35.7286 6.67835 30.0964 0.578613 26.0126 0.578613H26.0139Z" fill="#E671E6" fill-opacity="0.5"/>
</svg>
