<svg width="372" height="48" viewBox="0 0 372 48" fill="none" xmlns="http://www.w3.org/2000/svg">
<g clip-path="url(#clip0_2012_6405)">
<path d="M92.6583 -68.6203L90.7175 -68.1374C52.1295 -58.5365 28.6307 -19.4716 38.2316 19.1164C47.8326 57.7045 86.8974 81.2032 125.485 71.6023L127.426 71.1194C166.014 61.5185 189.513 22.4536 179.912 -16.1344C170.311 -54.7225 131.246 -78.2212 92.6583 -68.6203Z" fill="#539933"/>
<path d="M92.6583 -68.6203L90.7175 -68.1374C52.1295 -58.5365 28.6307 -19.4716 38.2316 19.1164C47.8326 57.7045 86.8974 81.2032 125.485 71.6023L127.426 71.1194C166.014 61.5185 189.513 22.4536 179.912 -16.1344C170.311 -54.7225 131.246 -78.2212 92.6583 -68.6203Z" stroke="#151515" stroke-width="8"/>
<path d="M255.604 -34.9672C246.003 -73.5553 206.938 -97.054 168.35 -87.4531C129.762 -77.8522 106.264 -38.7873 115.864 -0.199234C125.465 38.3888 164.53 61.8875 203.118 52.2866C241.706 42.6857 265.205 3.62085 255.604 -34.9672Z" fill="#91DA6C"/>
<path d="M255.604 -34.9672C246.003 -73.5553 206.938 -97.054 168.35 -87.4531C129.762 -77.8522 106.264 -38.7873 115.864 -0.199234C125.465 38.3888 164.53 61.8875 203.118 52.2866C241.706 42.6857 265.205 3.62085 255.604 -34.9672Z" stroke="#151515" stroke-width="8"/>
<path d="M245.983 -106.768L244.042 -106.286C205.454 -96.6847 181.955 -57.6198 191.556 -19.0318C201.157 19.5563 240.222 43.055 278.81 33.4541L280.751 32.9712C319.339 23.3703 342.837 -15.6946 333.236 -54.2826C323.635 -92.8707 284.571 -116.369 245.983 -106.768Z" fill="#C7EEB4"/>
<path d="M245.983 -106.768L244.042 -106.286C205.454 -96.6847 181.955 -57.6198 191.556 -19.0318C201.157 19.5563 240.222 43.055 278.81 33.4541L280.751 32.9712C319.339 23.3703 342.837 -15.6946 333.236 -54.2826C323.635 -92.8707 284.571 -116.369 245.983 -106.768Z" stroke="#151515" stroke-width="8"/>
</g>
<defs>
<clipPath id="clip0_2012_6405">
<rect width="372" height="48" fill="white"/>
</clipPath>
</defs>
</svg>
