<svg width="372" height="48" viewBox="0 0 372 48" fill="none" xmlns="http://www.w3.org/2000/svg">
<g clip-path="url(#clip0_2012_6397)">
<path d="M279.342 -68.6203L281.282 -68.1375C319.871 -58.5365 343.369 -19.4716 333.768 19.1165C324.167 57.7045 285.102 81.2032 246.514 71.6023L244.574 71.1194C205.985 61.5185 182.487 22.4536 192.088 -16.1345C201.689 -54.7226 240.754 -78.2213 279.342 -68.6203Z" fill="#539933"/>
<path d="M279.342 -68.6203L281.282 -68.1375C319.871 -58.5365 343.369 -19.4716 333.768 19.1165C324.167 57.7045 285.102 81.2032 246.514 71.6023L244.574 71.1194C205.985 61.5185 182.487 22.4536 192.088 -16.1345C201.689 -54.7226 240.754 -78.2213 279.342 -68.6203Z" stroke="#151515" stroke-width="8"/>
<path d="M116.396 -34.967C125.997 -73.5551 165.062 -97.0538 203.65 -87.4529C242.238 -77.8519 265.736 -38.787 256.135 -0.198968C246.535 38.3891 207.47 61.8878 168.882 52.2869C130.294 42.6859 106.795 3.62102 116.396 -34.967Z" fill="#91DA6C"/>
<path d="M116.396 -34.967C125.997 -73.5551 165.062 -97.0538 203.65 -87.4529C242.238 -77.8519 265.736 -38.787 256.135 -0.198968C246.535 38.3891 207.47 61.8878 168.882 52.2869C130.294 42.6859 106.795 3.62102 116.396 -34.967Z" stroke="#151515" stroke-width="8"/>
<path d="M126.017 -106.769L127.958 -106.286C166.546 -96.6847 190.045 -57.6198 180.444 -19.0317C170.843 19.5563 131.778 43.055 93.1902 33.4541L91.2493 32.9712C52.6613 23.3703 29.1626 -15.6946 38.7635 -54.2827C48.3644 -92.8708 87.4293 -116.369 126.017 -106.769Z" fill="#C7EEB4"/>
<path d="M126.017 -106.769L127.958 -106.286C166.546 -96.6847 190.045 -57.6198 180.444 -19.0317C170.843 19.5563 131.778 43.055 93.1902 33.4541L91.2493 32.9712C52.6613 23.3703 29.1626 -15.6946 38.7635 -54.2827C48.3644 -92.8708 87.4293 -116.369 126.017 -106.769Z" stroke="#151515" stroke-width="8"/>
</g>
<defs>
<clipPath id="clip0_2012_6397">
<rect width="372" height="48" fill="white"/>
</clipPath>
</defs>
</svg>
